Coordinates
version=1
nRows=65
nColumns=12
inDegrees=yes

Units are S.I. units (second, meters, Newtons, ...)
Angles are in degrees

endheader
time	SC_y	SC_z	SC_x	AC_y	AC_z	AC_x	GH_y	GH_z	GH_yy	EL_x	PS_y
       0.0              -43.63          18.36          35.33          34.46         -17.98          19.09          137.4          60.01         -127.1          61.13          73.65
   0.03026              -43.63          18.36          35.33          34.46         -17.98          19.09          137.4          60.01         -127.0          61.13          73.65
   0.06052              -43.63          18.36          35.32          34.47         -17.98          19.09          137.4           60.0         -127.0          61.13          73.65
   0.09077              -43.62          18.36          35.32          34.47         -17.98          19.08          137.4           60.0         -127.0          61.13          73.65
     0.121              -43.62          18.37          35.32          34.47         -17.98          19.08          137.4          59.99         -126.9          61.13          73.65
    0.1513              -43.61          18.37          35.31          34.47         -17.98          19.07          137.4          59.99         -126.9          61.13          73.65
    0.1815              -43.61          18.37          35.31          34.47         -17.98          19.07          137.4          59.98         -126.8          61.12          73.65
    0.2118              -43.61          18.38          35.31          34.48         -17.98          19.06          137.4          59.98         -126.8          61.12          73.65
    0.2421               -43.6          18.38          35.31          34.48         -17.98          19.06          137.5          59.97         -126.7          61.12          73.65
    0.2723               -43.6          18.39           35.3          34.48         -17.98          19.05          137.5          59.96         -126.7          61.12          73.65
    0.3026              -43.59          18.39           35.3          34.49         -17.99          19.04          137.5          59.96         -126.6          61.12          73.65
    0.3328              -43.58          18.39          35.29          34.49         -17.99          19.04          137.5          59.95         -126.6          61.11          73.65
    0.3631              -43.58           18.4          35.29          34.49         -17.99          19.03          137.5          59.94         -126.5          61.11          73.65
    0.3934              -43.57          18.41          35.28           34.5         -17.99          19.02          137.5          59.93         -126.4          61.11          73.65
    0.4236              -43.56          18.41          35.28           34.5         -17.99          19.01          137.5          59.92         -126.3           61.1          73.65
    0.4539              -43.56          18.42          35.27          34.51         -17.99           19.0          137.5          59.91         -126.3           61.1          73.65
    0.4841              -43.55          18.43          35.26          34.51         -17.99          18.99          137.5           59.9         -126.2          61.09          73.65
    0.5144              -43.54          18.43          35.26          34.52         -17.99          18.98          137.5          59.89         -126.1          61.09          73.65
    0.5446              -43.53          18.44          35.25          34.52         -17.99          18.97          137.5          59.87         -125.9          61.09          73.65
    0.5749              -43.52          18.45          35.24          34.53         -17.99          18.96          137.5          59.86         -125.8          61.08          73.65
    0.6052               -43.5          18.46          35.23          34.54         -17.99          18.94          137.5          59.84         -125.7          61.07          73.65
    0.6354              -43.49          18.47          35.22          34.54         -17.99          18.93          137.5          59.82         -125.5          61.07          73.65
    0.6657              -43.47          18.49          35.21          34.55         -17.99          18.91          137.5           59.8         -125.4          61.06          73.65
    0.6959              -43.46           18.5           35.2          34.56          -18.0          18.89          137.5          59.78         -125.2          61.05          73.65
    0.7262              -43.44          18.51          35.18          34.57          -18.0          18.87          137.5          59.75         -125.0          61.04          73.64
    0.7564              -43.42          18.53          35.17          34.58          -18.0          18.84          137.6          59.73         -124.8          61.03          73.64
    0.7867              -43.39          18.55          35.15           34.6          -18.0          18.82          137.6          59.69         -124.5          61.02          73.64
     0.817              -43.37          18.57          35.13          34.61          -18.0          18.78          137.6          59.66         -124.2          61.01          73.64
    0.8472              -43.34           18.6          35.11          34.63          -18.0          18.75          137.6          59.62         -123.9           61.0          73.64
    0.8775               -43.3          18.62          35.08          34.65         -18.01          18.71          137.6          59.57         -123.5          60.98          73.64
    0.9077              -43.26          18.66          35.06          34.67         -18.01          18.66          137.6          59.52         -123.1          60.96          73.64
     0.938              -43.22          18.69          35.02           34.7         -18.01          18.61          137.7          59.46         -122.6          60.94          73.64
    0.9683              -43.17          18.73          34.98          34.73         -18.02          18.55          137.7          59.39         -122.1          60.92          73.64
    0.9985              -43.11          18.78          34.94          34.76         -18.02          18.48          137.7          59.31         -121.4          60.89          73.64
     1.029              -43.04          18.84          34.89           34.8         -18.03           18.4          137.8          59.22         -120.7          60.86          73.63
     1.059              -42.96          18.91          34.83          34.85         -18.03          18.31          137.8          59.11         -119.8          60.82          73.63
     1.089              -42.86          18.99          34.75           34.9         -18.04          18.19          137.9          58.98         -118.8          60.77          73.63
      1.12              -42.74          19.08          34.67          34.97         -18.05          18.06          137.9          58.82         -117.5          60.72          73.63
      1.15               -42.6           19.2          34.56          35.05         -18.06          17.89          138.0          58.63         -116.0          60.65          73.62
      1.18              -42.43          19.34          34.43          35.15         -18.07          17.69          138.1           58.4         -114.1          60.57          73.62
      1.21              -42.21          19.51          34.28          35.27         -18.09          17.44          138.2          58.11         -111.8          60.47          73.61
     1.241              -41.95          19.73          34.08          35.42         -18.11          17.13          138.4          57.76         -108.9          60.34          73.61
     1.271              -41.61           20.0          33.83          35.61         -18.14          16.74          138.6          57.31         -105.3          60.18           73.6
     1.301              -41.19          20.35          33.51          35.86         -18.17          16.24          138.8          56.74         -100.7          59.98          73.58
     1.331              -40.64           20.8          33.11          36.17         -18.21           15.6          139.1          56.01         -94.86          59.73          73.57
     1.362              -39.94          21.37          32.59          36.57         -18.26          14.79          139.5          55.07         -87.32           59.4          73.55
     1.392              -39.05           22.1          31.92          37.08         -18.33          13.74          140.0          53.87         -77.68          58.97          73.53
     1.422              -37.92          23.02          31.09          37.72         -18.41          12.43          140.6          52.36         -65.57          58.45           73.5
     1.452              -36.55          24.14          30.07           38.5         -18.52          10.83          141.4          50.53         -50.81           57.8          73.46
     1.483              -34.96          25.44          28.89          39.41         -18.64          8.977          142.2           48.4         -33.69          57.05          73.42
     1.513              -33.24          26.84          27.61          40.39         -18.77          6.969          143.2          46.09         -15.17          56.24          73.37
     1.543              -31.52          28.25          26.34          41.37          -18.9          4.962          144.1          43.79          3.363          55.43          73.33
     1.573              -29.93          29.55          25.16          42.28         -19.02          3.108          145.0          41.66          20.47          54.68          73.29
     1.604              -28.56          30.67          24.14          43.06         -19.12          1.509          145.8          39.82          35.24          54.04          73.25
     1.634              -27.44          31.58           23.3          43.71         -19.21         0.1961          146.4          38.31          47.35          53.51          73.22
     1.664              -26.54          32.31          22.64          44.22         -19.28        -0.8477          146.9          37.11          56.99          53.08           73.2
     1.694              -25.84          32.89          22.12          44.62         -19.33         -1.665          147.3          36.18          64.53          52.76          73.18
     1.725               -25.3          33.33          21.72          44.93         -19.37         -2.302          147.6          35.45          70.41           52.5          73.16
     1.755              -24.87          33.68           21.4          45.17          -19.4         -2.799          147.8          34.87           75.0           52.3          73.15
     1.785              -24.53          33.95          21.15          45.36         -19.43         -3.191          148.0          34.42          78.61          52.14          73.14
     1.815              -24.27          34.17          20.95          45.51         -19.45         -3.501          148.2          34.07          81.48          52.01          73.14
     1.846              -24.05          34.35          20.79          45.64         -19.47          -3.75          148.3          33.78          83.78          51.91          73.13
     1.876              -23.88          34.49          20.66          45.74         -19.48         -3.952          148.4          33.55          85.64          51.83          73.13
     1.906              -23.74           34.6          20.56          45.82         -19.49         -4.117          148.4          33.36          87.17          51.77          73.12
     1.937              -23.62           34.7          20.47          45.88          -19.5         -4.254          148.5           33.2          88.43          51.71          73.12
